<?xml version="1.0" encoding="UTF-8" standalone="no"?>
<svg
   xmlns:dc="http://purl.org/dc/elements/1.1/"
   xmlns:cc="http://creativecommons.org/ns#"
   xmlns:rdf="http://www.w3.org/1999/02/22-rdf-syntax-ns#"
   xmlns:svg="http://www.w3.org/2000/svg"
   xmlns="http://www.w3.org/2000/svg"
   viewBox="0 0 812.09332 718.77332"
   height="718.77332"
   width="812.09332"
   xml:space="preserve"
   id="svg2"
   version="1.1"><metadata
     id="metadata8"><rdf:RDF><cc:Work
         rdf:about=""><dc:format>image/svg+xml</dc:format><dc:type
           rdf:resource="http://purl.org/dc/dcmitype/StillImage" /></cc:Work></rdf:RDF></metadata><defs
     id="defs6" /><g
     transform="matrix(1.3333333,0,0,-1.3333333,0,718.77333)"
     id="g10"><g
       transform="scale(0.1)"
       id="g12"><path
         id="path14"
         style="fill:#60bdb0;fill-opacity:1;fill-rule:nonzero;stroke:none"
         d="M 2863.7,5301.67 C 2045.08,5127.72 930.215,4235.56 1264.38,3245.93 1593.61,2270.9 2899.98,1571.22 3894.83,2201.74 c 772.27,489.46 1029.53,1405.6 692.38,2255.72 -292.23,736.88 -1005.62,999.97 -1723.51,844.21" /><path
         id="path16"
         style="fill:#9cdff9;fill-opacity:1;fill-rule:nonzero;stroke:none"
         d="m 1251.27,3316.65 1685.21,129.71 c 351.05,109.29 1757.4,743.63 1651.57,1025.2 C 4309.02,5214 3435.23,5504.2 2687.21,5351.19 1886.86,5187.48 936.848,4229.02 1263.06,3260.03 c 19.73,-58.61 -36.2,112.05 -11.79,56.62" /><path
         id="path18"
         style="fill:#40b1e9;fill-opacity:1;fill-rule:nonzero;stroke:none"
         d="m 2323.51,4882.83 c -384.43,-179.71 -667.21,-483.02 -820.86,-924.76 -45.9,-131.94 -82.29,-277.36 -104.4,-416.41 -43.75,-275.22 21.87,-426.55 156.77,-673.95 45.64,-83.71 77.86,-161.07 155.72,-243.5 152.36,-161.31 498.7,-347.05 700.01,-374.08 465.74,-62.53 690.65,-153.08 1111.51,31.18 171.87,75.25 410.53,103.04 736.95,681.42 80.36,142.39 132.43,365.93 150.55,530.63 11.31,102.84 7.55,116.14 10.78,221.26 2.77,90.16 -9.29,279.41 -28.47,370.53 -31.57,149.95 -37.04,310.63 -126.86,435.64 -4.66,6.48 -9.5,12.81 -14.54,18.94 -100.23,122.07 -226.26,191.61 -351.04,264.32 -395.74,230.62 -851.91,307.72 -1289.12,186.85 -100.18,-27.69 -195.5,-65.3 -287,-108.07" /><path
         id="path20"
         style="fill:#6786c6;fill-opacity:1;fill-rule:nonzero;stroke:none"
         d="m 4492.96,4668.11 c 0,0 -2054.53,405.77 -3183.08,-477.13 0,0 -216.07,-452.77 -61.2,-891.52 133.75,-378.89 1244.27,-769.99 1607.03,-450.68 0,0 310.18,138.18 667.87,640.38 0,0 450.12,458.96 702.71,554.74 0,0 210.63,97.11 426.87,221.79 0,0 -64.08,253.12 -160.2,402.42" /><path
         id="path22"
         style="fill:#3777c0;fill-opacity:1;fill-rule:nonzero;stroke:none"
         d="m 4021.75,4731.63 c -76.83,11.99 -1295.26,250.33 -2266.12,-270.35 0,0 -229.15,-341.21 -299.91,-516.01 0,0 1145.53,421.27 1845.46,415.64 0,0 630.27,-40.68 380.53,-284.93 -67.58,-66.09 -95.51,-107.91 -178.12,-147.93 -181.82,-88.09 -332.25,-206.36 -508.81,-263.46 -151.96,-49.14 -304.96,-99.15 -424.97,-216.29 -114.7,-111.95 -255.4,-260.28 -355.77,-377.97 -102.07,-119.68 -432.31,-251.54 -450.11,-359.04 -11.23,-67.85 484.25,-341.35 503.81,-348.68 455.36,-170.58 513.94,-0.78 781.44,330.46 192.46,238.33 70.06,79.03 181.85,352.87 155.52,380.99 748.9,943.68 1161.28,1073.85 0,0 -131.85,400.85 -370.56,611.84" /><path
         id="path24"
         style="fill:#2b70bc;fill-opacity:1;fill-rule:nonzero;stroke:none"
         d="m 1499.23,4141.03 c 6.39,9.32 1020.23,716.15 2260.51,384.69 71.79,-19.19 186.11,-102.68 189.72,-211.15 6.6,-198.9 -157.63,-288.52 -425.95,-575.28 -126.18,-134.86 -184.79,-98.21 -354.83,-555.69 -80.17,-215.7 -397.57,-867.47 -590.82,-947.98 -139.19,-57.98 -350.25,76.87 -578.68,278.99 -276.81,244.93 -926.13,1004.45 -499.95,1626.42" /><path
         id="path26"
         style="fill:#2ba5af;fill-opacity:1;fill-rule:nonzero;stroke:none"
         d="m 4379.39,4127.26 c 0,0 152.5,-696.79 -92.13,-1190.43 25.72,24.48 485.97,674.38 365.9,1328.86 -0.02,0.13 -154.71,-5.91 -273.77,-138.43" /><path
         id="path28"
         style="fill:#2ba5af;fill-opacity:1;fill-rule:nonzero;stroke:none"
         d="m 1398.63,3421.54 c -77.07,17.79 -159.23,77.28 -200.32,111.2 -1.34,12.28 48.64,-647 632.02,-1052.89 228.28,-158.82 672.13,-311.4 1092.64,-337.21 110.87,-6.8 243.05,52.67 243.05,52.67 0,0 -156.31,-23.41 -277.97,-8.35 -214.09,26.51 -554.51,97.9 -879.8,375.76 -214.9,183.58 -406.97,462.9 -609.62,858.82" /><path
         id="path30"
         style="fill:#ffffff;fill-opacity:1;fill-rule:nonzero;stroke:none"
         d="m 2112.23,4113.29 c 18.48,39.74 29.03,83.75 29.03,130.26 0,94.79 -42.97,179.6 -110.66,237.43 -8.93,7.63 -19.19,13.62 -28.94,20.26 -6.42,4.37 -12.31,9.42 -19.05,13.33 -3.41,1.98 -7,3.56 -10.49,5.42 -16.08,8.55 -32.63,16.41 -50.23,22.23 -32.46,10.73 -67.1,16.8 -103.26,16.8 -167.41,0 -304.98,-124.7 -321.01,-284.28 -1.03,-10.27 -1.61,-20.66 -1.61,-31.19 0,-110.11 57.76,-206.92 145.19,-263.35 0.11,-0.09 0.21,-0.19 0.32,-0.27 51.32,-38.02 115.07,-60.85 184.43,-60.85 131.16,0 242.73,80.84 286.28,194.21" /><path
         id="path32"
         style="fill:#ffffff;fill-opacity:1;fill-rule:nonzero;stroke:none"
         d="m 4471.35,4289.62 c -0.46,2.7 -0.76,5.45 -1.29,8.13 -0.9,4.54 -2.06,8.97 -3.16,13.43 -1.45,5.88 -2.88,11.75 -4.66,17.49 -0.05,0.17 -0.09,0.34 -0.13,0.51 -0.06,0.23 -0.12,0.47 -0.19,0.69 -0.1,0.33 -0.16,0.69 -0.27,1.02 -41.09,128.91 -199.24,222.64 -312.58,222.64 -180.62,0 -327.03,-141.24 -327.03,-315.48 0,-174.23 146.41,-315.47 327.03,-315.47 119.52,0 207.34,52.69 266.6,133.19 1.29,1.75 2.74,3.37 3.99,5.15 1.44,2.04 2.68,4.22 4.08,6.29 2.55,3.82 4.94,7.73 7.33,11.65 0.41,0.63 0.96,1.16 1.36,1.8 0.08,0.12 0.16,0.22 0.23,0.34 0.42,0.68 0.68,1.45 1.1,2.13 0.21,0.36 0.45,0.69 0.66,1.05 3.84,6.62 7.27,13.46 10.62,20.36 0.19,0.38 0.38,0.75 0.57,1.14 19.37,40.29 30.48,85.03 30.48,132.37 0,1.57 -0.22,3.09 -0.24,4.66 0.17,4.35 0.41,8.61 0.46,13.09 -1.06,8.44 -1.73,17.09 -2.83,24.67 -0.45,3.17 -1.58,6.03 -2.13,9.15" /><path
         id="path34"
         style="fill:#ffffff;fill-opacity:1;fill-rule:nonzero;stroke:none"
         d="m 2840.64,5114.53 c -70.56,-21.1 -134.64,-57.01 -188.38,-104.28 -66.34,-58.33 -117.11,-133.52 -144.75,-219.13 -15.35,-47.54 -23.78,-98.12 -23.78,-150.69 0,-273.58 224.32,-495.36 501.02,-495.36 39.8,0 78.33,5.06 115.45,13.73 114.45,26.73 213.49,92.11 282.62,181.62 64.36,83.32 103.01,187.08 103.01,300.01 0,77.72 -18.62,150.97 -50.89,216.43 -40.32,81.8 -102.48,150.94 -179.34,199.9 -78.15,49.78 -170.97,79 -270.85,79 -50.18,0 -98.47,-7.58 -144.11,-21.23" /><path
         id="path36"
         style="fill:#ffffff;fill-opacity:1;fill-rule:nonzero;stroke:none"
         d="m 2093.66,2586.41 1.85,146.09 c 127.43,12.72 145.44,136.52 145.44,136.52 l 2.89,62.06 v 203.08 6.64 507.58 c 0,84.16 -61.45,187.4 -143.26,187.4 H 1939.8 l -128.65,-204.68 -10.92,-117.48 -154.62,322.16 h -138.42 c -81.76,0 -107.17,-106.56 -107.17,-190.72 l -1.39,-223.52 c 216.5,-480.84 509.55,-797.06 695.26,-921.88 l -0.23,86.75" /><path
         id="path38"
         style="fill:#ffffff;fill-opacity:1;fill-rule:nonzero;stroke:none"
         d="m 3378.39,4029.53 c -20.92,0 -37.16,-0.2 -50.81,-0.74 -78.89,-109.2 -183.29,-169.81 -344.5,-169.81 -163.82,0 -253.75,46.65 -355.41,176.92 -20.15,-0.94 -35.88,-3.78 -64.48,-6.37 -164.26,-14.86 -203.88,-93.53 -203.88,-208.5 V 2567.42 c 0,-114.97 91.44,-208.49 203.88,-208.49 l -1.48,-165.79 c 164.94,-34.7 256.93,-48.53 409.06,-49.58 132.75,-0.92 272.59,19.31 405.19,78.52 l 2.43,125.76 c 112.46,0 203.83,93.52 203.83,208.49 v 1264.7 c 0,114.97 -91.37,208.5 -203.83,208.5" /><path
         id="path40"
         style="fill:#231f20;fill-opacity:1;fill-rule:nonzero;stroke:none"
         d="m 1396.98,1467.75 h 165.11 V 717.191 h -165.11 v 750.559" /><path
         id="path42"
         style="fill:#231f20;fill-opacity:1;fill-rule:nonzero;stroke:none"
         d="m 3573.41,1473.09 h 152.27 l 321.68,-755.899 h -172.62 l -68.65,168.348 h -317.36 l -68.65,-168.348 h -168.35 z m 173.74,-441.73 -99.7,243.37 -99.75,-243.37 z" /><path
         id="path44"
         style="fill:#231f20;fill-opacity:1;fill-rule:nonzero;stroke:none"
         d="m 4938.25,1467.74 h 566.11 v -146.9 h -402.08 v -152.25 h 353.84 V 1021.71 H 5102.28 V 864.059 h 407.47 V 717.18 h -571.5 v 750.56" /><path
         id="path46"
         style="fill:#231f20;fill-opacity:1;fill-rule:nonzero;stroke:none"
         d="M 0,4.35156 H 28.668 V 258.289 H 0 V 4.35156" /><path
         id="path48"
         style="fill:#231f20;fill-opacity:1;fill-rule:nonzero;stroke:none"
         d="M 289.813,258.301 V 54.7617 L 129.828,258.301 H 102.977 V 4.37109 h 27.914 V 212.57 L 294.863,4.37109 H 317.73 V 258.301 h -27.917" /><path
         id="path50"
         style="fill:#231f20;fill-opacity:1;fill-rule:nonzero;stroke:none"
         d="m 371.199,258.301 v -26.492 h 85.274 V 4.37109 h 29.031 V 231.809 h 85.223 v 26.492 H 371.199" /><path
         id="path52"
         style="fill:#231f20;fill-opacity:1;fill-rule:nonzero;stroke:none"
         d="M 624.281,258.301 V 4.37109 H 809.668 V 30.5 H 652.945 v 88.871 h 138.543 v 26.078 H 652.945 v 86.699 h 154.86 v 26.153 H 624.281" /><path
         id="path54"
         style="fill:#231f20;fill-opacity:1;fill-rule:nonzero;stroke:none"
         d="M 1507.52,260.082 1391.79,4.35156 h 29.39 l 30.09,67.09764 h 138.18 l 29.76,-67.09764 h 30.84 L 1534.32,260.082 Z m 13.05,-33.332 57.67,-129.1992 h -115.73 z" /><path
         id="path56"
         style="fill:#231f20;fill-opacity:1;fill-rule:nonzero;stroke:none"
         d="m 1649.15,258.301 v -26.492 h 85.25 V 4.37109 h 29.05 V 231.809 h 85.23 v 26.492 h -199.53" /><path
         id="path58"
         style="fill:#231f20;fill-opacity:1;fill-rule:nonzero;stroke:none"
         d="m 1904.74,4.35156 h 28.69 V 258.289 h -28.69 V 4.35156" /><path
         id="path60"
         style="fill:#231f20;fill-opacity:1;fill-rule:nonzero;stroke:none"
         d="M 2194.56,258.301 V 54.7617 L 2034.58,258.301 h -26.83 V 4.37109 h 27.91 V 212.57 L 2199.61,4.37109 h 22.87 V 258.301 h -27.92" /><path
         id="path62"
         style="fill:#231f20;fill-opacity:1;fill-rule:nonzero;stroke:none"
         d="M 2862.36,258.301 V 145.449 h -146.52 v 112.852 h -28.7 V 4.37109 h 28.7 V 118.602 h 146.52 V 4.37109 h 28.66 V 258.301 h -28.66" /><path
         id="path64"
         style="fill:#231f20;fill-opacity:1;fill-rule:nonzero;stroke:none"
         d="M 2962.64,258.301 V 4.37109 h 185.39 V 30.5 h -156.7 v 88.871 h 138.55 v 26.078 h -138.55 v 86.699 h 154.84 v 26.153 h -183.53" /><path
         id="path66"
         style="fill:#231f20;fill-opacity:1;fill-rule:nonzero;stroke:none"
         d="M 3299.53,260.082 3183.81,4.35156 h 29.39 l 30.09,67.09764 h 138.18 l 29.75,-67.09764 h 30.84 L 3326.36,260.082 Z m 13.06,-33.332 57.67,-129.1992 h -115.73 z" /><path
         id="path68"
         style="fill:#231f20;fill-opacity:1;fill-rule:nonzero;stroke:none"
         d="M 3492,258.301 V 4.37109 h 171.56 V 30.8594 h -142.9 V 258.301 H 3492" /><path
         id="path70"
         style="fill:#231f20;fill-opacity:1;fill-rule:nonzero;stroke:none"
         d="m 3661.99,258.301 v -26.492 h 85.25 V 4.37109 h 29.06 V 231.809 h 85.22 v 26.492 h -199.53" /><path
         id="path72"
         style="fill:#231f20;fill-opacity:1;fill-rule:nonzero;stroke:none"
         d="M 4090.27,258.301 V 145.449 h -146.52 v 112.852 h -28.67 V 4.37109 h 28.67 V 118.602 h 146.52 V 4.37109 h 28.69 V 258.301 h -28.69" /><path
         id="path74"
         style="fill:#231f20;fill-opacity:1;fill-rule:nonzero;stroke:none"
         d="M 4531.36,258.301 V 4.37109 h 185.39 V 30.5 h -156.7 v 88.871 h 138.55 v 26.078 h -138.55 v 86.699 h 154.86 v 26.153 h -183.55" /><path
         id="path76"
         style="fill:#231f20;fill-opacity:1;fill-rule:nonzero;stroke:none"
         d="M 5220.34,258.301 5129.65,39.5586 5039.33,258.301 H 5007.4 L 5116.55,2.53125 h 25.38 l 109.2,255.76975 h -30.79" /><path
         id="path78"
         style="fill:#231f20;fill-opacity:1;fill-rule:nonzero;stroke:none"
         d="m 5303.59,4.35156 h 28.67 V 258.289 h -28.67 V 4.35156" /><path
         id="path80"
         style="fill:#231f20;fill-opacity:1;fill-rule:nonzero;stroke:none"
         d="M 5674.07,258.301 V 4.37109 h 185.38 V 30.5 h -156.72 v 88.871 h 138.57 v 26.078 h -138.57 v 86.699 h 154.86 v 26.153 h -183.52" /><path
         id="path82"
         style="fill:#231f20;fill-opacity:1;fill-rule:nonzero;stroke:none"
         d="m 564.984,1090.31 v 2.14 c 0,213.39 160.864,388.16 391.364,388.16 141.522,0 226.252,-47.18 295.962,-115.81 l -105.08,-121.17 c -57.93,52.57 -116.9,84.74 -191.945,84.74 -126.527,0 -217.652,-105.09 -217.652,-233.77 v -2.15 c 0,-128.649 88.976,-235.88 217.652,-235.88 85.765,0 138.315,34.34 197.275,87.942 L 1257.62,838.34 c -77.17,-82.559 -162.96,-134.039 -307.694,-134.039 -220.867,0 -384.942,170.531 -384.942,386.009" /><path
         id="path84"
         style="fill:#231f20;fill-opacity:1;fill-rule:nonzero;stroke:none"
         d="m 1749.71,1467.74 h 343.12 c 95.4,0 169.41,-26.8 218.72,-76.13 41.82,-41.82 64.32,-100.79 64.32,-171.54 v -2.17 c 0,-121.17 -65.38,-197.3 -160.81,-232.67 L 2398.38,717.18 H 2205.4 L 2044.54,957.359 H 1914.85 V 717.18 h -165.14 z m 332.38,-364.56 c 80.4,0 126.55,42.91 126.55,106.15 v 2.15 c 0,70.74 -49.36,107.23 -129.77,107.23 h -164.02 v -215.53 h 167.24" /><path
         id="path86"
         style="fill:#231f20;fill-opacity:1;fill-rule:nonzero;stroke:none"
         d="m 2491.61,1090.31 v 2.14 c 0,213.39 160.86,388.16 391.39,388.16 141.49,0 226.22,-47.18 295.93,-115.81 l -105.08,-121.17 c -57.9,52.57 -116.9,84.74 -191.91,84.74 -126.56,0 -217.66,-105.09 -217.66,-233.77 v -2.15 c 0,-128.649 88.95,-235.88 217.66,-235.88 85.76,0 138.28,34.34 197.3,87.942 l 105,-106.172 c -77.17,-82.559 -162.96,-134.039 -307.69,-134.039 -220.87,0 -384.94,170.531 -384.94,386.009" /><path
         id="path88"
         style="fill:#231f20;fill-opacity:1;fill-rule:nonzero;stroke:none"
         d="m 4163.09,1467.74 h 343.12 c 95.4,0 169.41,-26.8 218.72,-76.13 41.82,-41.82 64.33,-100.79 64.33,-171.54 v -2.17 c 0,-121.17 -65.39,-197.3 -160.82,-232.67 L 4811.76,717.18 H 4618.78 L 4457.92,957.359 H 4328.23 V 717.18 h -165.14 z m 332.38,-364.56 c 80.4,0 126.55,42.91 126.55,106.15 v 2.15 c 0,70.74 -49.36,107.23 -129.76,107.23 h -164.03 v -215.53 h 167.24" /><path
         id="path90"
         style="fill:#231f20;fill-opacity:1;fill-rule:nonzero;stroke:none"
         d="m 855.977,130.59 v 0.699 c 0,69.66 51.148,131.371 127.304,131.371 42.779,0 69.299,-12.351 94.679,-33.742 l -18.52,-21.797 c -19.55,17.039 -41.3,29.027 -77.272,29.027 -56.191,0 -96.461,-47.5 -96.461,-104.078 v -0.781 c 0,-60.539 38.793,-105.5507 100.449,-105.5507 29.034,0 55.914,11.293 73.284,25.4101 V 114.25 h -77.272 v 25.801 H 1087.02 V 38.8398 C 1063.46,17.8203 1027.9,0 985.094,0 905.285,0 855.977,58.0586 855.977,130.59" /><path
         id="path92"
         style="fill:#231f20;fill-opacity:1;fill-rule:nonzero;stroke:none"
         d="m 1151.45,258.301 h 109.2 c 31.21,0 56.2,-9.449 72.18,-25.379 12.32,-12.352 19.57,-30.16 19.57,-50.082 v -0.75 c 0,-42.031 -29.03,-66.731 -68.88,-74.012 L 1361.49,4.33984 h -35.19 l -73.65,98.69116 h -72.53 V 4.33984 h -28.67 z M 1258.12,128.77 c 38.09,0 65.25,19.582 65.25,52.261 v 0.699 c 0,31.2 -23.92,50.079 -64.89,50.079 h -78.36 V 128.77 h 78" /><path
         id="path94"
         style="fill:#231f20;fill-opacity:1;fill-rule:nonzero;stroke:none"
         d="m 2282.93,130.59 v 0.699 c 0,69.66 51.14,131.371 127.3,131.371 42.78,0 69.3,-12.351 94.68,-33.742 l -18.52,-21.797 c -19.55,17.039 -41.3,29.027 -77.22,29.027 -56.25,0 -96.51,-47.5 -96.51,-104.078 v -0.781 c 0,-60.539 38.79,-105.5507 100.45,-105.5507 29.03,0 55.91,11.293 73.28,25.4101 V 114.25 h -77.22 v 25.801 h 104.8 V 38.8398 C 2490.41,17.8203 2454.85,0 2412.05,0 2332.23,0 2282.93,58.0586 2282.93,130.59" /><path
         id="path96"
         style="fill:#231f20;fill-opacity:1;fill-rule:nonzero;stroke:none"
         d="m 4282.67,41.3789 17.79,21.0195 c 26.47,-23.9492 51.85,-35.8867 87.07,-35.8867 34.07,0 56.58,18.0977 56.58,43.1367 v 0.75 c 0,23.5704 -12.69,36.9806 -66.04,48.2036 -58.37,12.707 -85.22,31.558 -85.22,73.277 v 0.73 c 0,39.903 35.19,69.289 83.39,69.289 37.03,0 63.52,-10.539 89.28,-31.199 l -16.7,-22.121 c -23.56,19.223 -47.18,27.563 -73.28,27.563 -33.02,0 -54.02,-18.161 -54.02,-40.973 v -0.746 c 0,-23.93 13.05,-37.32 68.88,-49.313 56.61,-12.347 82.71,-33.039 82.71,-71.8277 V 72.582 c 0,-43.5625 -36.28,-71.812469 -86.7,-71.812469 -40.27,0 -73.23,13.390669 -103.74,40.609369" /><path
         id="path98"
         style="fill:#231f20;fill-opacity:1;fill-rule:nonzero;stroke:none"
         d="m 4774.29,258.301 h 109.2 c 31.2,0 56.19,-9.449 72.17,-25.379 12.33,-12.352 19.58,-30.16 19.58,-50.082 v -0.75 c 0,-42.031 -29.03,-66.731 -68.88,-74.012 L 4984.33,4.33984 h -35.19 l -73.65,98.69116 h -72.54 V 4.33984 h -28.66 z M 4880.95,128.77 c 38.1,0 65.26,19.582 65.26,52.261 v 0.699 c 0,31.2 -23.93,50.079 -64.9,50.079 h -78.36 V 128.77 h 78" /><path
         id="path100"
         style="fill:#231f20;fill-opacity:1;fill-rule:nonzero;stroke:none"
         d="m 5395.33,130.59 v 0.699 c 0,71.84 53.66,131.371 128.42,131.371 46.02,0 73.6,-16.34 98.97,-40.269 l -19.57,-21.051 c -21.39,20.301 -45.32,34.808 -79.81,34.808 -56.2,0 -98.28,-45.707 -98.28,-104.078 v -0.781 c 0,-58.6992 42.45,-104.8007 98.28,-104.8007 34.85,0 57.72,13.4219 81.98,36.6523 L 5624.2,44.6211 C 5597.74,17.8203 5568.71,0 5522.64,0 5449.35,0 5395.33,57.7188 5395.33,130.59" /><path
         id="path102"
         style="fill:#231f20;fill-opacity:1;fill-rule:nonzero;stroke:none"
         d="m 5900.3,41.3789 17.79,21.0195 c 26.47,-23.9492 51.85,-35.8867 87.06,-35.8867 34.08,0 56.59,18.0977 56.59,43.1367 v 0.75 c 0,23.5704 -12.69,36.9806 -66.04,48.2036 -58.37,12.707 -85.22,31.558 -85.22,73.277 v 0.73 c 0,39.903 35.19,69.289 83.38,69.289 37.03,0 63.53,-10.539 89.29,-31.199 l -16.7,-22.121 c -23.57,19.223 -47.18,27.563 -73.29,27.563 -33.01,0 -54.07,-18.161 -54.07,-40.973 v -0.746 c 0,-23.93 13.11,-37.32 68.94,-49.313 56.61,-12.347 82.71,-33.039 82.71,-71.8277 V 72.582 c 0,-43.5625 -36.28,-71.812469 -86.7,-71.812469 -40.27,0 -73.23,13.390669 -103.74,40.609369" /><path
         id="path104"
         style="fill:#ffffff;fill-opacity:1;fill-rule:nonzero;stroke:none"
         d="m 4460.62,3830.01 c -11.57,3.43 -112.38,5.96 -138.68,6.48 v -138.47 h -367.52 v 138.57 h -110.29 c -81.8,0 -148.32,-68.49 -148.32,-152.66 v -78.69 -684.55 c 0,-84.18 66.52,-152.64 148.32,-152.64 v -18.07 -20.11 -38.63 -23.89 -237.27 c 209.67,137.95 551.09,515.59 701.22,972.15 v 281.7 c 0,69.54 -22.82,127.73 -84.73,146.08" /></g></g></svg>